<svg width="93" height="42" viewBox="0 0 93 42" fill="none" xmlns="http://www.w3.org/2000/svg">
<path d="M76.0972 34.2611C76.0972 30.2805 78.4402 27.2825 82.0681 27.2825C83.6804 27.2825 85.0409 27.9879 86.0486 29.2728V22.8988H89.5254V40.9878H86.3258V39.0479C85.2676 40.4588 83.8064 41.2398 82.0681 41.2398C78.4402 41.2398 76.0972 38.1913 76.0972 34.2611ZM79.6999 34.2611C79.6999 36.7805 81.1359 38.1157 82.8491 38.1157C84.5874 38.1157 86.0235 36.7553 86.0235 34.2107C86.0235 31.6662 84.5622 30.3813 82.8491 30.3813C81.1359 30.3813 79.6999 31.6914 79.6999 34.2611Z" fill="#474747"/>
<path d="M68.9845 41.2145C64.9535 41.2145 62.2578 38.418 62.2578 34.2107C62.2578 30.2049 65.0543 27.2825 68.9341 27.2825C73.1918 27.2825 76.0135 30.734 75.3837 35.1177H65.8353C66.062 37.3095 67.1202 38.5188 68.9089 38.5188C70.4457 38.5188 71.4787 37.763 71.8818 36.4278H75.3585C74.6027 39.4762 72.2597 41.2145 68.9845 41.2145ZM68.8585 29.8522C67.221 29.8522 66.188 30.9104 65.8857 32.9006H71.6802C71.5795 31.0363 70.5213 29.8522 68.8585 29.8522Z" fill="#474747"/>
<path d="M58.7113 40.9879H55.2346V30.5325H52.5137V27.5345H55.2346V26.8038C55.2346 24.1333 56.6706 22.6217 59.4671 22.6217C60.3237 22.6217 61.0543 22.7729 61.6338 23.0248V25.7961C61.2559 25.6449 60.752 25.5694 60.2985 25.5694C59.3411 25.5694 58.7113 25.9473 58.7113 26.8794V27.5345H62.2132V30.5325H58.7113V40.9879Z" fill="#474747"/>
<path d="M45.7611 41.2397C41.8561 41.2397 38.9336 38.1661 38.9336 34.2611C38.9336 30.3309 41.8561 27.2825 45.7611 27.2825C49.6661 27.2825 52.5885 30.3309 52.5885 34.2611C52.5885 38.1661 49.6661 41.2397 45.7611 41.2397ZM45.7611 38.1409C47.4994 38.1409 48.9858 36.7553 48.9858 34.2611C48.9858 31.7669 47.4994 30.4065 45.7611 30.4065C44.0227 30.4065 42.5363 31.7669 42.5363 34.2611C42.5363 36.7553 44.0227 38.1409 45.7611 38.1409Z" fill="#474747"/>
<path d="M31.2567 41.2397C27.3517 41.2397 24.4292 38.1661 24.4292 34.2611C24.4292 30.3309 27.3517 27.2825 31.2567 27.2825C35.1617 27.2825 38.0841 30.3309 38.0841 34.2611C38.0841 38.1661 35.1617 41.2397 31.2567 41.2397ZM31.2567 38.1409C32.995 38.1409 34.4815 36.7553 34.4815 34.2611C34.4815 31.7669 32.995 30.4065 31.2567 30.4065C29.5183 30.4065 28.0319 31.7669 28.0319 34.2611C28.0319 36.7553 29.5183 38.1409 31.2567 38.1409Z" fill="#474747"/>
<path d="M19.1303 34.4627V40.9879H15.6284V27.5345H18.8532V30.1294C19.8358 28.4162 21.9268 27.3833 24.0935 27.3833V31.0112C21.1206 30.7844 19.1303 31.4899 19.1303 34.4627Z" fill="#474747"/>
<path d="M6.67631 35.0925H3.82943V40.9878H0V22.8988H6.67631C11.0852 22.8988 13.8313 24.9899 13.8313 28.9201C13.8313 32.8503 11.0852 35.0925 6.67631 35.0925ZM6.65112 26.1236H3.82943V31.8677H6.65112C8.81777 31.8677 10.0271 30.734 10.0271 28.9453C10.0271 27.1565 8.81777 26.1236 6.65112 26.1236Z" fill="#474747"/>
<path d="M67.5817 18.3157C63.5507 18.3157 60.855 15.5192 60.855 11.3119C60.855 7.30613 63.6515 4.38367 67.5313 4.38367C71.789 4.38367 74.6107 7.83519 73.9809 12.2189H64.4325C64.6592 14.4107 65.7174 15.62 67.5061 15.62C69.0429 15.62 70.0758 14.8642 70.4789 13.529H73.9557C73.1998 16.5774 70.8568 18.3157 67.5817 18.3157ZM67.4557 6.95342C65.8181 6.95342 64.7852 8.01155 64.4829 10.0018H70.2774C70.1766 8.13752 69.1185 6.95342 67.4557 6.95342Z" fill="#474747"/>
<path d="M55.5571 11.5638V18.0889H52.0552V4.63554H55.28V7.23048C56.2625 5.51731 58.3536 4.48438 60.5202 4.48438V8.11226C57.5474 7.88551 55.5571 8.59094 55.5571 11.5638Z" fill="#474747"/>
<path d="M45.936 12.4206V4.63574H49.4127V18.0891H46.2131V16.3256C45.4825 17.5097 43.9961 18.3411 42.2829 18.3411C39.5872 18.3411 37.6221 16.7035 37.6221 13.2016V4.63574H41.124V12.5213C41.124 14.4109 42.0561 15.2423 43.467 15.2423C44.7267 15.2423 45.936 14.2345 45.936 12.4206Z" fill="#474747"/>
<path d="M35.9878 14.6879V17.7363C35.1312 18.1646 34.325 18.341 33.2921 18.341C30.5208 18.341 28.7824 16.7538 28.7824 13.7305V7.63366H26.0615V4.63562H28.7824V0.655029H32.2592V4.63562H36.1138V7.63366H32.2592V12.9243C32.2592 14.4863 32.9646 15.1162 34.2243 15.1162C34.8793 15.1162 35.4839 14.965 35.9878 14.6879Z" fill="#474747"/>
<path d="M21.5043 12.4206V4.63574H24.981V18.0891H21.7815V16.3256C21.0508 17.5097 19.5644 18.3411 17.8513 18.3411C15.1555 18.3411 13.1904 16.7035 13.1904 13.2016V4.63574H16.6923V12.5213C16.6923 14.4109 17.6245 15.2423 19.0353 15.2423C20.295 15.2423 21.5043 14.2345 21.5043 12.4206Z" fill="#474747"/>
<path d="M3.82943 18.089H0V0H11.6898V3.32556H3.82943V7.8856H10.4554V11.186H3.82943V18.089Z" fill="#474747"/>
<path d="M86.2466 4.51355L87.7284 9.40796L92.3732 10.6401L87.7284 12.2831L86.2466 16.7666L84.908 12.2831L80.1201 10.6401L84.908 9.40796L86.2466 4.51355Z" fill="#FF7676"/>
<path d="M90.6249 13.2688L91.0479 14.666L92.3738 15.0177L91.0479 15.4867L90.6249 16.7666L90.2427 15.4867L88.876 15.0177L90.2427 14.666L90.6249 13.2688Z" fill="#FF7676"/>
<path d="M81.869 4.51355L82.292 5.91072L83.6179 6.26245L82.292 6.73147L81.869 8.01135L81.4869 6.73147L80.1201 6.26245L81.4869 5.91072L81.869 4.51355Z" fill="#FF7676"/>
</svg>
